<svg width="235" height="363" viewBox="0 0 235 363" fill="none" xmlns="http://www.w3.org/2000/svg">
  <path d="M234.122 357.133C235.31 359.058 233.725 360.982 230.753 360.982H204.395C202.81 360.982 201.422 360.094 201.026 359.354L168.327 305.31H167.138L134.438 359.354C134.041 360.094 132.655 360.982 131.069 360.982H104.712C101.738 360.982 100.154 359.058 101.343 357.133L163.57 257.484C164.165 256.595 165.353 255.855 166.94 255.855H168.921C170.507 255.855 171.695 256.595 172.29 257.484L234.122 357.133Z" fill="#9B4B1E"/>
  <path d="M52.9434 256.991C67.5444 256.991 78.3494 261.517 88.2784 270.57C89.5924 271.738 89.5924 273.49 88.4244 274.658L77.0354 286.485C76.0124 287.507 74.4074 287.507 73.3844 286.485C67.9834 281.667 60.8284 279.038 53.6734 279.038C37.1744 279.038 25.0554 292.763 25.0554 309.116C25.0554 325.324 37.3204 338.756 53.8194 338.756C60.6824 338.756 68.1294 336.274 73.3844 331.748C74.4074 330.872 76.3054 330.872 77.1814 331.894L88.5704 344.013C89.5924 345.035 89.4464 346.933 88.4244 347.955C78.4954 357.592 65.9394 362.118 52.9434 362.118C23.7414 362.118 0.234375 338.902 0.234375 309.701C0.234375 280.499 23.7414 256.991 52.9434 256.991Z" fill="#9B4B1E"/>
  <path d="M182.69 128.007C197.291 128.007 208.096 132.533 218.025 141.586C219.339 142.754 219.339 144.506 218.171 145.674L206.782 157.501C205.76 158.523 204.154 158.523 203.131 157.501C197.73 152.683 190.575 150.054 183.42 150.054C166.921 150.054 154.802 163.779 154.802 180.133C154.802 196.34 167.067 209.772 183.567 209.772C190.429 209.772 197.876 207.29 203.131 202.764C204.154 201.888 206.052 201.888 206.928 202.91L218.317 215.029C219.339 216.052 219.193 217.949 218.171 218.971C208.242 228.608 195.686 233.134 182.69 233.134C153.489 233.134 129.981 209.918 129.981 180.717C129.981 151.515 153.489 128.007 182.69 128.007Z" fill="#9B4B1E"/>
  <path d="M52.0174 209.419C67.8844 209.419 80.8664 196.438 80.8664 180.715C80.8664 164.848 67.8844 151.722 52.0174 151.722C36.2944 151.722 23.3134 164.848 23.3134 180.715C23.3134 196.438 36.2944 209.419 52.0174 209.419ZM52.0174 128.643C80.8664 128.643 103.944 151.867 103.944 180.715C103.944 209.563 80.8664 232.498 52.0174 232.498C23.1684 232.498 0.234375 209.563 0.234375 180.715C0.234375 151.867 23.1684 128.643 52.0174 128.643Z" fill="#9B4B1E"/>
  <path d="M234.367 101.573L172.535 1.92436C171.94 1.03536 170.752 0.295364 169.166 0.295364H167.185C165.598 0.295364 164.41 1.03536 163.815 1.92436L117.55 76.0124L71.579 1.92436C70.984 1.03536 69.796 0.295364 68.209 0.295364H66.228C64.642 0.295364 63.454 1.03536 62.859 1.92436L0.631999 101.573C-0.558002 103.498 1.027 105.422 4.001 105.422H30.358C31.944 105.422 33.33 104.534 33.727 103.794L66.426 49.7504H67.616L100.314 103.794C100.711 104.534 102.099 105.422 103.684 105.422H104.957H130.042H131.314C132.9 105.422 134.286 104.534 134.683 103.794L167.383 49.7504H168.572L201.271 103.794C201.667 104.534 203.055 105.422 204.64 105.422H230.998C233.97 105.422 235.555 103.498 234.367 101.573Z" fill="#9B4B1E"/>
</svg>
