<svg width="235" height="106" viewBox="0 0 235 106" fill="none" xmlns="http://www.w3.org/2000/svg">
<path d="M234.367 101.573L172.535 1.92436C171.94 1.03536 170.752 0.295364 169.166 0.295364H167.185C165.598 0.295364 164.41 1.03536 163.815 1.92436L117.55 76.0124L71.579 1.92436C70.984 1.03536 69.796 0.295364 68.209 0.295364H66.228C64.642 0.295364 63.454 1.03536 62.859 1.92436L0.631999 101.573C-0.558002 103.498 1.027 105.422 4.001 105.422H30.358C31.944 105.422 33.33 104.534 33.727 103.794L66.426 49.7504H67.616L100.314 103.794C100.711 104.534 102.099 105.422 103.684 105.422H104.957H130.042H131.314C132.9 105.422 134.286 104.534 134.683 103.794L167.383 49.7504H168.572L201.271 103.794C201.667 104.534 203.055 105.422 204.64 105.422H230.998C233.97 105.422 235.555 103.498 234.367 101.573Z" fill="#9B4B1E"/>
</svg>
