<svg width="100" height="101" viewBox="0 0 100 101" fill="none" xmlns="http://www.w3.org/2000/svg">
<path d="M100 100.385H0V0.384766H100V100.385Z" fill="#9B4B1E"/>
<path d="M70.4311 83.2681C70.6392 83.6052 70.3617 83.9424 69.8409 83.9424H65.2232C64.9454 83.9424 64.7024 83.7868 64.6328 83.6572L58.9043 74.1891H58.696L52.9673 83.6572C52.8977 83.7868 52.6549 83.9424 52.3769 83.9424H47.7596C47.2384 83.9424 46.9609 83.6052 47.1692 83.2681L58.0711 65.8103C58.1752 65.6547 58.3833 65.5251 58.6613 65.5251H59.0084C59.2861 65.5251 59.4943 65.6547 59.5986 65.8103L70.4311 83.2681Z" fill="white"/>
<path d="M38.6902 65.7241C41.2483 65.7241 43.1412 66.517 44.8805 68.1031C45.1109 68.3077 45.1109 68.6147 44.9063 68.8194L42.911 70.8913C42.7319 71.0704 42.4504 71.0704 42.2714 70.8913C41.3251 70.0471 40.0717 69.5867 38.8182 69.5867C35.9276 69.5867 33.8045 71.9912 33.8045 74.8561C33.8045 77.6954 35.9533 80.0488 38.8438 80.0488C40.0461 80.0488 41.3507 79.6138 42.2714 78.8209C42.4504 78.6676 42.783 78.6676 42.9365 78.8465L44.9318 80.9697C45.1109 81.1488 45.0853 81.4814 44.9063 81.6602C43.1667 83.3485 40.967 84.1416 38.6902 84.1416C33.5744 84.1416 29.4561 80.0744 29.4561 74.9585C29.4561 69.8424 33.5744 65.7241 38.6902 65.7241Z" fill="white"/>
<path d="M61.4207 43.1265C63.9787 43.1265 65.8716 43.9194 67.611 45.5054C67.8414 45.71 67.8414 46.0171 67.6367 46.2217L65.6415 48.2936C65.4624 48.4727 65.1809 48.4727 65.0018 48.2936C64.0556 47.4494 62.8021 46.9891 61.5487 46.9891C58.6581 46.9891 56.535 49.3936 56.535 52.2584C56.535 55.0978 58.6838 57.4512 61.5742 57.4512C62.7766 57.4512 64.0812 57.0162 65.0018 56.2233C65.1809 56.0699 65.5135 56.0699 65.667 56.2488L67.6623 58.3721C67.8414 58.5511 67.8158 58.8837 67.6367 59.0626C65.8972 60.7508 63.6975 61.5439 61.4207 61.5439C56.3048 61.5439 52.1865 57.4767 52.1865 52.3609C52.1865 47.2448 56.3048 43.1265 61.4207 43.1265Z" fill="white"/>
<path d="M38.528 57.3893C41.3077 57.3893 43.582 55.115 43.582 52.3607C43.582 49.5808 41.3077 47.2814 38.528 47.2814C35.7735 47.2814 33.4992 49.5808 33.4992 52.3607C33.4992 55.115 35.7735 57.3893 38.528 57.3893ZM38.528 43.238C43.582 43.238 47.6253 47.3065 47.6253 52.3607C47.6253 57.4146 43.582 61.4326 38.528 61.4326C33.474 61.4326 29.4561 57.4146 29.4561 52.3607C29.4561 47.3065 33.474 43.238 38.528 43.238Z" fill="white"/>
<path d="M70.4742 38.4956L59.6417 21.0379C59.5374 20.8821 59.3293 20.7526 59.0515 20.7526H58.7044C58.4264 20.7526 58.2183 20.8821 58.114 21.0379L50.0089 34.0175L41.955 21.0379C41.8507 20.8821 41.6426 20.7526 41.3646 20.7526H41.0177C40.7398 20.7526 40.5316 20.8821 40.4273 21.0379L29.5257 38.4956C29.3173 38.8328 29.5948 39.1699 30.1158 39.1699H34.7334C35.0113 39.1699 35.2541 39.0143 35.3237 38.8847L41.0524 29.4166H41.2608L46.9892 38.8847C47.0586 39.0143 47.3019 39.1699 47.5794 39.1699H47.8027H52.1971H52.4202C52.698 39.1699 52.9408 39.0143 53.0104 38.8847L58.7391 29.4166H58.9474L64.6759 38.8847C64.7455 39.0143 64.9886 39.1699 65.2663 39.1699H69.884C70.4048 39.1699 70.6823 38.8328 70.4742 38.4956Z" fill="white"/>
</svg>
