<svg width="366" height="363" viewBox="0 0 366 363" fill="none" xmlns="http://www.w3.org/2000/svg">
<path d="M326.704 352.204L321.589 344.151C321.403 343.838 321.589 343.452 321.959 343.452H324.968C325.153 343.452 325.269 343.573 325.338 343.669L328.556 348.611L331.772 343.669C331.842 343.573 331.935 343.452 332.143 343.452H335.152C335.522 343.452 335.707 343.838 335.522 344.151L330.338 352.18V359.871C330.338 360.111 330.129 360.329 329.898 360.329H327.144C326.889 360.329 326.704 360.111 326.704 359.871V352.204Z" fill="#fff"/>
<path d="M305.854 343.91C305.854 343.669 306.063 343.452 306.294 343.452H309.049C309.303 343.452 309.488 343.669 309.488 343.91V349.986H316.107V343.91C316.107 343.669 316.292 343.452 316.547 343.452H319.301C319.533 343.452 319.741 343.669 319.741 343.91V359.871C319.741 360.112 319.533 360.329 319.301 360.329H316.547C316.292 360.329 316.107 360.112 316.107 359.871V353.53H309.488V359.871C309.488 360.112 309.303 360.329 309.049 360.329H306.294C306.063 360.329 305.854 360.112 305.854 359.871V343.91Z" fill="#fff"/>
<path d="M298.102 350.684C299.098 350.684 299.93 349.865 299.93 348.78C299.93 347.767 299.098 346.995 298.102 346.995H295.903V350.684H298.102ZM292.293 343.909C292.293 343.668 292.478 343.451 292.733 343.451H298.311C301.158 343.451 303.495 345.863 303.495 348.78C303.495 351.769 301.158 354.205 298.333 354.205H295.903V359.87C295.903 360.111 295.695 360.328 295.464 360.328H292.733C292.478 360.328 292.293 360.111 292.293 359.87V343.909Z" fill="#fff"/>
<path d="M281.163 356.712C283.709 356.712 285.792 354.543 285.792 351.915C285.792 349.263 283.709 347.068 281.163 347.068C278.641 347.068 276.557 349.263 276.557 351.915C276.557 354.543 278.641 356.712 281.163 356.712ZM281.163 343.211C285.792 343.211 289.495 347.093 289.495 351.915C289.495 356.736 285.792 360.57 281.163 360.57C276.534 360.57 272.854 356.736 272.854 351.915C272.854 347.093 276.534 343.211 281.163 343.211Z" fill="#fff"/>
<path d="M260.429 358.038L261.517 356.037C261.702 355.723 262.142 355.772 262.303 355.892C262.396 355.94 264.063 357.218 265.59 357.218C266.516 357.218 267.187 356.615 267.187 355.772C267.187 354.759 266.378 353.987 264.803 353.336C262.813 352.517 260.313 350.901 260.313 348.008C260.313 345.621 262.096 343.21 265.66 343.21C268.067 343.21 269.919 344.488 270.613 345.018C270.89 345.187 270.844 345.621 270.752 345.79L269.572 347.646C269.409 347.911 268.993 348.129 268.784 347.96C268.576 347.839 266.886 346.514 265.475 346.514C264.641 346.514 264.016 347.092 264.016 347.743C264.016 348.635 264.711 349.31 266.539 350.081C268.344 350.829 271.215 352.3 271.215 355.579C271.215 358.062 269.155 360.569 265.752 360.569C262.744 360.569 261.077 359.268 260.545 358.713C260.313 358.472 260.244 358.376 260.429 358.038Z" fill="#fff"/>
<path d="M329.34 324.507V322.313C329.34 322.048 329.525 321.855 329.78 321.855H335.08C335.335 321.855 335.52 322.048 335.52 322.313V324.507C335.52 324.748 335.335 324.941 335.08 324.941H329.78C329.525 324.941 329.34 324.748 329.34 324.507Z" fill="#fff"/>
<path d="M319.276 327.788C321.822 327.788 323.905 325.618 323.905 322.991C323.905 320.339 321.822 318.144 319.276 318.144C316.754 318.144 314.67 320.339 314.67 322.991C314.67 325.618 316.754 327.788 319.276 327.788ZM319.276 314.287C323.905 314.287 327.608 318.169 327.608 322.991C327.608 327.812 323.905 331.646 319.276 331.646C314.647 331.646 310.967 327.812 310.967 322.991C310.967 318.169 314.647 314.287 319.276 314.287Z" fill="#fff"/>
<path d="M300.415 314.985C300.415 314.744 300.6 314.527 300.855 314.527H303.609C303.841 314.527 304.049 314.744 304.049 314.985V327.86H309.557C309.812 327.86 309.998 328.077 309.998 328.318V330.946C309.998 331.187 309.812 331.404 309.557 331.404H300.855C300.6 331.404 300.415 331.187 300.415 330.946V314.985Z" fill="#fff"/>
<path d="M292.778 314.985C292.778 314.744 292.987 314.527 293.218 314.527H295.995C296.227 314.527 296.435 314.744 296.435 314.985V330.946C296.435 331.187 296.227 331.404 295.995 331.404H293.218C292.987 331.404 292.778 331.187 292.778 330.946V314.985Z" fill="#fff"/>
<path d="M274.915 314.985C274.915 314.744 275.124 314.527 275.355 314.527H278.109C278.364 314.527 278.549 314.744 278.549 314.985V321.061H285.168V314.985C285.168 314.744 285.353 314.527 285.608 314.527H288.362C288.594 314.527 288.802 314.744 288.802 314.985V330.946C288.802 331.187 288.594 331.404 288.362 331.404H285.608C285.353 331.404 285.168 331.187 285.168 330.946V324.605H278.549V330.946C278.549 331.187 278.364 331.404 278.109 331.404H275.355C275.124 331.404 274.915 331.187 274.915 330.946V314.985Z" fill="#fff"/>
<path d="M267.164 321.76C268.16 321.76 268.993 320.94 268.993 319.855C268.993 318.842 268.16 318.07 267.164 318.07H264.965V321.76H267.164ZM261.355 314.984C261.355 314.744 261.54 314.526 261.795 314.526H267.373C270.22 314.526 272.557 316.938 272.557 319.855C272.557 322.844 270.22 325.28 267.395 325.28H264.965V330.945C264.965 331.186 264.757 331.404 264.526 331.404H261.795C261.54 331.404 261.355 331.186 261.355 330.945V314.984Z" fill="#fff"/>
<path d="M302.083 294.354L296.968 286.301C296.782 285.988 296.968 285.602 297.338 285.602H300.347C300.532 285.602 300.648 285.723 300.717 285.819L303.935 290.761L307.151 285.819C307.221 285.723 307.314 285.602 307.522 285.602H310.531C310.901 285.602 311.086 285.988 310.901 286.301L305.717 294.33V302.021C305.717 302.261 305.508 302.479 305.277 302.479H302.523C302.268 302.479 302.083 302.261 302.083 302.021V294.354Z" fill="#fff"/>
<path d="M292.434 296.692L290.675 292.714H290.652L288.916 296.692H292.434ZM282.922 301.852L290.166 285.626C290.235 285.481 290.397 285.361 290.56 285.361H290.791C290.953 285.361 291.114 285.481 291.184 285.626L298.429 301.852C298.567 302.165 298.383 302.479 298.035 302.479H295.466C295.049 302.479 294.864 302.334 294.656 301.876L293.823 299.971H287.527L286.694 301.9C286.578 302.19 286.324 302.479 285.861 302.479H283.315C282.968 302.479 282.783 302.165 282.922 301.852Z" fill="#fff"/>
<path d="M276.118 289.145H272.808C272.554 289.145 272.369 288.928 272.369 288.687V286.059C272.369 285.818 272.554 285.601 272.808 285.601H283.085C283.339 285.601 283.524 285.818 283.524 286.059V288.687C283.524 288.928 283.339 289.145 283.085 289.145H279.775V302.02C279.775 302.261 279.567 302.478 279.335 302.478H276.558C276.327 302.478 276.118 302.261 276.118 302.02V289.145Z" fill="#fff"/>
<path d="M260.429 300.189L261.517 298.188C261.702 297.874 262.142 297.923 262.303 298.043C262.396 298.091 264.063 299.369 265.59 299.369C266.516 299.369 267.187 298.766 267.187 297.923C267.187 296.91 266.378 296.138 264.803 295.487C262.813 294.668 260.313 293.052 260.313 290.159C260.313 287.772 262.096 285.361 265.66 285.361C268.067 285.361 269.919 286.639 270.613 287.169C270.89 287.338 270.844 287.772 270.752 287.941L269.572 289.797C269.409 290.062 268.993 290.28 268.784 290.111C268.576 289.99 266.886 288.665 265.475 288.665C264.641 288.665 264.016 289.243 264.016 289.894C264.016 290.786 264.711 291.461 266.539 292.232C268.344 292.98 271.215 294.451 271.215 297.73C271.215 300.213 269.155 302.72 265.752 302.72C262.744 302.72 261.077 301.419 260.545 300.864C260.313 300.623 260.244 300.527 260.429 300.189Z" fill="#fff"/>
<path d="M350.213 256.82C350.236 256.603 350.445 256.435 350.63 256.435H351C351.116 256.435 351.325 256.531 351.394 256.675L356.763 267.091H356.81L362.18 256.675C362.248 256.531 362.457 256.435 362.573 256.435H362.943C363.128 256.435 363.337 256.603 363.36 256.82L365.975 273.022C366.022 273.335 365.813 273.553 365.535 273.553H362.804C362.596 273.553 362.388 273.359 362.364 273.166L361.323 265.717H361.277L357.388 273.528C357.319 273.673 357.111 273.793 356.995 273.793H356.578C356.439 273.793 356.255 273.673 356.185 273.528L352.273 265.717H352.227L351.209 273.166C351.185 273.359 351 273.553 350.769 273.553H348.038C347.76 273.553 347.551 273.335 347.598 273.022L350.213 256.82Z" fill="#fff"/>
<path d="M331.701 257.133C331.701 256.892 331.91 256.675 332.141 256.675H334.988C335.243 256.675 335.427 256.892 335.427 257.133V266.898C335.427 268.585 336.631 269.935 338.274 269.935C339.941 269.935 341.168 268.585 341.168 266.898V257.133C341.168 256.892 341.352 256.675 341.607 256.675H344.454C344.685 256.675 344.894 256.892 344.894 257.133V267.091C344.894 270.755 341.932 273.793 338.274 273.793C334.641 273.793 331.701 270.755 331.701 267.091V257.133Z" fill="#fff"/>
<path d="M324.296 257.133C324.296 256.892 324.505 256.675 324.736 256.675H327.513C327.745 256.675 327.953 256.892 327.953 257.133V273.094C327.953 273.335 327.745 273.552 327.513 273.552H324.736C324.505 273.552 324.296 273.335 324.296 273.094V257.133Z" fill="#fff"/>
<path d="M305.577 256.82C305.6 256.603 305.809 256.435 305.994 256.435H306.364C306.48 256.435 306.689 256.531 306.758 256.675L312.127 267.091H312.174L317.544 256.675C317.612 256.531 317.821 256.435 317.937 256.435H318.307C318.492 256.435 318.701 256.603 318.724 256.82L321.339 273.022C321.386 273.335 321.177 273.553 320.899 273.553H318.168C317.96 273.553 317.752 273.359 317.728 273.166L316.687 265.717H316.641L312.752 273.528C312.683 273.673 312.475 273.793 312.359 273.793H311.942C311.803 273.793 311.619 273.673 311.549 273.528L307.637 265.717H307.591L306.573 273.166C306.549 273.359 306.364 273.553 306.133 273.553H303.402C303.124 273.553 302.915 273.335 302.962 273.022L305.577 256.82Z" fill="#fff"/>
<path d="M290.419 257.133C290.419 256.892 290.604 256.675 290.859 256.675H300.441C300.696 256.675 300.881 256.892 300.881 257.133V259.761C300.881 260.003 300.696 260.219 300.441 260.219H294.03V263.209H299.307C299.538 263.209 299.747 263.426 299.747 263.667V266.295C299.747 266.56 299.538 266.753 299.307 266.753H294.03V270.008H300.441C300.696 270.008 300.881 270.225 300.881 270.466V273.094C300.881 273.335 300.696 273.552 300.441 273.552H290.859C290.604 273.552 290.419 273.335 290.419 273.094V257.133Z" fill="#fff"/>
<path d="M281.974 263.884C282.923 263.884 283.734 262.968 283.734 261.955C283.734 260.943 282.923 260.123 281.974 260.123H278.549V263.884H281.974ZM274.915 257.133C274.915 256.892 275.1 256.675 275.355 256.675H282.275C285.052 256.675 287.321 259.013 287.321 261.883C287.321 264.101 285.909 265.885 283.895 266.729L287.066 272.853C287.228 273.166 287.066 273.552 286.673 273.552H283.594C283.409 273.552 283.27 273.431 283.224 273.334L280.146 266.946H278.549V273.094C278.549 273.334 278.341 273.552 278.109 273.552H275.355C275.1 273.552 274.915 273.334 274.915 273.094V257.133Z" fill="#fff"/>
<path d="M267.164 263.908C268.16 263.908 268.993 263.089 268.993 262.004C268.993 260.991 268.16 260.219 267.164 260.219H264.965V263.908H267.164ZM261.355 257.133C261.355 256.892 261.54 256.675 261.795 256.675H267.373C270.22 256.675 272.557 259.087 272.557 262.004C272.557 264.993 270.22 267.429 267.395 267.429H264.965V273.094C264.965 273.335 264.757 273.552 264.526 273.552H261.795C261.54 273.552 261.355 273.335 261.355 273.094V257.133Z" fill="#fff"/>
<path d="M234.122 357.133C235.31 359.058 233.725 360.982 230.753 360.982H204.395C202.81 360.982 201.422 360.094 201.026 359.354L168.327 305.31H167.138L134.438 359.354C134.041 360.094 132.655 360.982 131.069 360.982H104.712C101.738 360.982 100.154 359.058 101.343 357.133L163.57 257.484C164.165 256.595 165.353 255.855 166.94 255.855H168.921C170.507 255.855 171.695 256.595 172.29 257.484L234.122 357.133Z" fill="#fff"/>
<path d="M52.9434 256.991C67.5444 256.991 78.3494 261.517 88.2784 270.57C89.5924 271.738 89.5924 273.49 88.4244 274.658L77.0354 286.485C76.0124 287.507 74.4074 287.507 73.3844 286.485C67.9834 281.667 60.8284 279.038 53.6734 279.038C37.1744 279.038 25.0554 292.763 25.0554 309.116C25.0554 325.324 37.3204 338.756 53.8194 338.756C60.6824 338.756 68.1294 336.274 73.3844 331.748C74.4074 330.872 76.3054 330.872 77.1814 331.894L88.5704 344.013C89.5924 345.035 89.4464 346.933 88.4244 347.955C78.4954 357.592 65.9394 362.118 52.9434 362.118C23.7414 362.118 0.234375 338.902 0.234375 309.701C0.234375 280.499 23.7414 256.991 52.9434 256.991Z" fill="#fff"/>
<path d="M182.69 128.007C197.291 128.007 208.096 132.533 218.025 141.586C219.339 142.754 219.339 144.506 218.171 145.674L206.782 157.501C205.76 158.523 204.154 158.523 203.131 157.501C197.73 152.683 190.575 150.054 183.42 150.054C166.921 150.054 154.802 163.779 154.802 180.133C154.802 196.34 167.067 209.772 183.567 209.772C190.429 209.772 197.876 207.29 203.131 202.764C204.154 201.888 206.052 201.888 206.928 202.91L218.317 215.029C219.339 216.052 219.193 217.949 218.171 218.971C208.242 228.608 195.686 233.134 182.69 233.134C153.489 233.134 129.981 209.918 129.981 180.717C129.981 151.515 153.489 128.007 182.69 128.007Z" fill="#fff"/>
<path d="M52.0174 209.419C67.8844 209.419 80.8664 196.438 80.8664 180.715C80.8664 164.848 67.8844 151.722 52.0174 151.722C36.2944 151.722 23.3134 164.848 23.3134 180.715C23.3134 196.438 36.2944 209.419 52.0174 209.419ZM52.0174 128.643C80.8664 128.643 103.944 151.867 103.944 180.715C103.944 209.563 80.8664 232.498 52.0174 232.498C23.1684 232.498 0.234375 209.563 0.234375 180.715C0.234375 151.867 23.1684 128.643 52.0174 128.643Z" fill="#fff"/>
<path d="M234.367 101.573L172.535 1.92436C171.94 1.03536 170.752 0.295364 169.166 0.295364H167.185C165.598 0.295364 164.41 1.03536 163.815 1.92436L117.55 76.0124L71.579 1.92436C70.984 1.03536 69.796 0.295364 68.209 0.295364H66.228C64.642 0.295364 63.454 1.03536 62.859 1.92436L0.631999 101.573C-0.558001 103.498 1.027 105.422 4.001 105.422H30.358C31.944 105.422 33.33 104.534 33.727 103.794L66.426 49.7504H67.616L100.314 103.794C100.711 104.534 102.099 105.422 103.684 105.422H104.957H130.042H131.314C132.9 105.422 134.286 104.534 134.683 103.794L167.383 49.7504H168.572L201.271 103.794C201.667 104.534 203.055 105.422 204.64 105.422H230.998C233.97 105.422 235.555 103.498 234.367 101.573Z" fill="#fff"/>
</svg>
