<svg width="100" height="100" viewBox="0 0 100 100" fill="none" xmlns="http://www.w3.org/2000/svg">
<path d="M81.9472 98.6223C82.272 99.1543 81.8387 99.686 81.0261 99.686H73.8195C73.3861 99.686 73.0066 99.4406 72.8983 99.2361L63.958 84.2995H63.6329L54.6924 99.2361C54.5838 99.4406 54.2049 99.686 53.7712 99.686H46.5649C45.7518 99.686 45.3187 99.1543 45.6438 98.6223L62.6574 71.0814C62.8201 70.8357 63.1449 70.6312 63.5788 70.6312H64.1204C64.5541 70.6312 64.8789 70.8357 65.0416 71.0814L81.9472 98.6223Z" fill="#9B4B1E"/>
<path d="M32.4113 70.9452C36.4034 70.9452 39.3576 72.1961 42.0723 74.6981C42.4316 75.0209 42.4316 75.5051 42.1123 75.8279L38.9984 79.0967C38.7187 79.3791 38.2798 79.3791 38.0001 79.0967C36.5234 77.7651 34.5672 77.0385 32.6109 77.0385C28.0999 77.0385 24.7864 80.8318 24.7864 85.3514C24.7864 89.8309 28.1398 93.5432 32.6508 93.5432C34.5272 93.5432 36.5633 92.8573 38.0001 91.6064C38.2798 91.3643 38.7988 91.3643 39.0383 91.6467L42.1522 94.9962C42.4316 95.2786 42.3917 95.8032 42.1123 96.0857C39.3975 98.7491 35.9646 100 32.4113 100C24.4271 100 18 93.5836 18 85.5131C18 77.4423 24.4271 70.9452 32.4113 70.9452Z" fill="#9B4B1E"/>
<path d="M67.8859 35.2967C71.878 35.2967 74.8322 36.5476 77.5469 39.0497C77.9062 39.3725 77.9062 39.8567 77.5869 40.1795L74.473 43.4482C74.1935 43.7307 73.7544 43.7307 73.4747 43.4482C71.998 42.1166 70.0418 41.39 68.0855 41.39C63.5745 41.39 60.261 45.1833 60.261 49.7032C60.261 54.1825 63.6144 57.8948 68.1257 57.8948C70.0018 57.8948 72.038 57.2088 73.4747 55.958C73.7544 55.7158 74.2734 55.7158 74.5129 55.9983L77.6268 59.3477C77.9062 59.6305 77.8663 60.1548 77.5869 60.4372C74.8721 63.1007 71.4392 64.3516 67.8859 64.3516C59.902 64.3516 53.4746 57.9352 53.4746 49.8646C53.4746 41.7938 59.902 35.2967 67.8859 35.2967Z" fill="#9B4B1E"/>
<path d="M32.1581 57.7972C36.4964 57.7972 40.0458 54.2096 40.0458 49.8641C40.0458 45.4788 36.4964 41.851 32.1581 41.851C27.8593 41.851 24.3101 45.4788 24.3101 49.8641C24.3101 54.2096 27.8593 57.7972 32.1581 57.7972ZM32.1581 35.4725C40.0458 35.4725 46.3556 41.8911 46.3556 49.8641C46.3556 57.837 40.0458 64.1758 32.1581 64.1758C24.2704 64.1758 18 57.837 18 49.8641C18 41.8911 24.2704 35.4725 32.1581 35.4725Z" fill="#9B4B1E"/>
<path d="M82.0148 27.9909L65.1092 0.450079C64.9465 0.204379 64.6217 -0.000140402 64.188 -0.000140402H63.6464C63.2125 -0.000140402 62.8877 0.204379 62.725 0.450079L50.0756 20.9264L37.5065 0.450079C37.3438 0.204379 37.019 -0.000140402 36.5851 -0.000140402H36.0435C35.6099 -0.000140402 35.285 0.204379 35.1224 0.450079L18.1087 27.9909C17.7834 28.5229 18.2167 29.0547 19.0298 29.0547H26.2362C26.6698 29.0547 27.0488 28.8093 27.1573 28.6047L36.0976 13.6682H36.423L45.363 28.6047C45.4716 28.8093 45.8511 29.0547 46.2844 29.0547H46.6325H53.491H53.8388C54.2724 29.0547 54.6514 28.8093 54.7599 28.6047L63.7005 13.6682H64.0256L72.9659 28.6047C73.0742 28.8093 73.4537 29.0547 73.8871 29.0547H81.0937C81.9063 29.0547 82.3396 28.5229 82.0148 27.9909Z" fill="#9B4B1E"/>
</svg>
