<svg width="144" height="60" viewBox="0 0 144 60" fill="none" xmlns="http://www.w3.org/2000/svg">
<g clip-path="url(#clip0_2184_36)">
<path d="M0 60H144V2.08852e-06H0V60Z" fill="black"/>
<mask id="mask0_2184_36" style="mask-type:luminance" maskUnits="userSpaceOnUse" x="0" y="0" width="144" height="60">
<path d="M0 2.08852e-06H144V60H0V2.08852e-06Z" fill="white"/>
</mask>
<g mask="url(#mask0_2184_36)">
<path d="M68.4804 22.3663C68.4961 22.3375 68.516 22.3104 68.527 22.2799C68.596 22.0835 68.7386 21.9836 68.9401 21.9586C68.9812 21.9535 69.0231 21.954 69.0646 21.954C70.838 21.954 72.6117 21.9544 74.3846 21.9548C74.7157 21.9548 75.0417 21.9921 75.36 22.081C76.2101 22.318 76.7418 22.8692 76.967 23.7188C77.0495 24.0308 77.083 24.3496 77.0868 24.6718C77.0919 25.0621 77.0648 25.449 76.9678 25.8292C76.8806 26.1691 76.743 26.4858 76.525 26.7643C76.1914 27.1906 75.7435 27.4332 75.225 27.5564C74.9667 27.6177 74.7043 27.6508 74.4384 27.6508C73.3534 27.652 72.2684 27.652 71.183 27.6525C71.0005 27.6525 70.8413 27.5979 70.7588 27.4247C70.6686 27.2367 70.6724 27.0433 70.7872 26.8625C70.8468 26.7685 70.94 26.716 71.0479 26.6974C71.1186 26.6856 71.191 26.6809 71.2626 26.6809C72.2112 26.6796 73.1608 26.6796 74.1099 26.6805C74.413 26.6809 74.7144 26.6661 75.0086 26.5835C75.081 26.5632 75.153 26.5391 75.2233 26.5112C75.526 26.3892 75.7393 26.1776 75.8646 25.8753C75.9599 25.6459 76.0086 25.4058 76.0289 25.1607C76.0577 24.8098 76.0602 24.4588 75.992 24.1108C75.9827 24.0626 75.9713 24.0148 75.9599 23.9673C75.8265 23.4301 75.4752 23.1186 74.9434 23.0059C74.7631 22.9678 74.5777 22.9505 74.394 22.9327C74.2814 22.9217 74.1671 22.9255 74.0536 22.9255C72.6016 22.9251 71.15 22.9251 69.6975 22.9251H69.54V23.0932C69.54 25.7644 69.54 28.4352 69.5396 31.1064C69.5396 31.1708 69.5379 31.2351 69.5303 31.2986C69.507 31.4942 69.4007 31.6238 69.2124 31.6851C69.1946 31.6906 69.1781 31.7 69.1611 31.7076H68.8436C68.8343 31.7012 68.8263 31.6919 68.8165 31.689C68.6637 31.642 68.5659 31.5421 68.5202 31.3884C68.5134 31.3647 68.494 31.3444 68.4804 31.3219V22.3663Z" fill="white"/>
<path d="M104.492 31.7078C104.487 31.7023 104.483 31.6942 104.477 31.6925C104.309 31.64 104.207 31.5206 104.133 31.3678C103.809 30.7028 103.482 30.0386 103.156 29.3739C103.138 29.3367 103.119 29.2998 103.094 29.2499H102.953C101.61 29.2499 100.267 29.2503 98.9255 29.2495C98.8459 29.2495 98.7664 29.2469 98.688 29.2355C98.437 29.1999 98.3125 29.0209 98.3659 28.7741C98.3773 28.7228 98.3951 28.6725 98.4167 28.6246C98.5119 28.4172 98.6715 28.3012 98.9039 28.2965C99.0098 28.2944 99.1156 28.2953 99.2219 28.2953H102.478H102.616C102.625 28.2817 102.627 28.2788 102.628 28.2754C102.63 28.272 102.632 28.2677 102.631 28.2648C102.615 28.2263 102.601 28.1877 102.583 28.1505C101.757 26.419 100.93 24.688 100.103 22.9574C100.1 22.9519 100.091 22.9502 100.078 22.9439C100.06 22.9803 100.04 23.0159 100.023 23.0527C98.7147 25.7967 97.4049 28.5404 96.0998 31.2861C96.0083 31.4787 95.8949 31.635 95.6874 31.7078H95.3471C95.3128 31.6934 95.2781 31.6798 95.2442 31.665C95.0745 31.5939 94.9864 31.4453 95.022 31.2658C95.041 31.1706 95.0745 31.0766 95.1164 30.9889C95.7924 29.567 96.471 28.1463 97.1488 26.7251C97.8126 25.3349 98.4759 23.9451 99.1393 22.5544C99.1588 22.5138 99.1783 22.4732 99.1994 22.4325C99.4026 22.0426 99.7553 21.8737 100.183 21.9004C100.585 21.9258 100.855 22.1383 101.025 22.4956C101.568 23.6382 102.114 24.7791 102.659 25.9204C103.462 27.6035 104.266 29.2867 105.069 30.9703C105.106 31.0482 105.141 31.1291 105.163 31.2125C105.219 31.4334 105.127 31.5998 104.914 31.6798C104.894 31.687 104.875 31.6985 104.855 31.7078H104.492Z" fill="white"/>
<path d="M80.8245 31.7078C80.5574 31.6193 80.4613 31.422 80.4727 31.1557C80.474 31.1337 80.4731 31.1109 80.4731 31.088C80.4731 28.2203 80.4727 25.3527 80.4731 22.4846C80.4731 22.4245 80.4727 22.3639 80.4782 22.3038C80.4985 22.0689 80.6302 21.9199 80.8609 21.875C80.9689 21.8542 81.0789 21.8534 81.1864 21.8847C81.3744 21.9389 81.4769 22.0676 81.5044 22.2568C81.5141 22.3199 81.5128 22.3847 81.5128 22.449C81.5133 25.3429 81.5133 28.2373 81.5128 31.1316C81.5128 31.1879 81.5128 31.2451 81.5065 31.3014C81.4866 31.4813 81.3973 31.6112 81.225 31.6798C81.2046 31.6879 81.1852 31.6985 81.1653 31.7078H80.8245Z" fill="white"/>
<path d="M110.278 31.7078C110.266 31.6997 110.254 31.69 110.241 31.6853C110.041 31.6151 109.952 31.4652 109.938 31.2628C109.935 31.218 109.936 31.1722 109.936 31.1274C109.936 28.9104 109.936 26.6934 109.937 24.4768C109.937 24.3904 109.941 24.302 109.961 24.219C110.002 24.0492 110.117 23.9476 110.286 23.9083C110.398 23.882 110.511 23.882 110.623 23.9078C110.803 23.9493 110.916 24.0602 110.957 24.2389C110.971 24.3007 110.977 24.3659 110.977 24.4298C110.978 26.6807 110.978 28.9311 110.977 31.1824C110.977 31.2417 110.971 31.3031 110.957 31.3619C110.925 31.5029 110.841 31.6045 110.707 31.6637C110.677 31.6773 110.648 31.6929 110.619 31.7078H110.278Z" fill="white"/>
<path d="M131.418 31.6214H128.843C128.794 31.6214 128.744 31.6243 128.696 31.618C128.64 31.6112 128.583 31.6019 128.531 31.5812C128.331 31.5012 128.237 31.2908 128.276 31.0186C128.306 30.8048 128.453 30.6608 128.666 30.6405C128.729 30.6346 128.794 30.6346 128.858 30.6346C130.492 30.6346 132.125 30.6346 133.758 30.6342C133.967 30.6342 134.176 30.624 134.377 30.5656C134.988 30.3882 135.343 29.9674 135.483 29.362C135.575 28.9671 135.555 28.5717 135.395 28.1945C135.198 27.7301 134.879 27.3897 134.377 27.2509C134.171 27.1942 133.96 27.1819 133.748 27.1819C132.7 27.1815 131.653 27.1637 130.605 27.1861C129.396 27.2124 128.272 26.3276 128.052 25.0081C127.85 23.8024 128.508 22.5963 129.612 22.1336C129.894 22.0155 130.188 21.9545 130.495 21.9545C131.553 21.9545 132.612 21.9541 133.671 21.9541H135.214C135.248 21.9541 135.282 21.9537 135.316 21.9541C135.724 21.9571 135.945 22.2864 135.795 22.67C135.735 22.8253 135.616 22.9096 135.454 22.9324C135.391 22.9413 135.326 22.9405 135.262 22.9405C133.745 22.9409 132.229 22.9409 130.713 22.9409C130.515 22.9409 130.319 22.9515 130.13 23.0129C129.622 23.1763 129.301 23.5319 129.141 24.0263C128.986 24.5043 129.033 24.978 129.278 25.4183C129.564 25.9318 130.02 26.1773 130.601 26.193C130.926 26.2014 131.251 26.1947 131.577 26.1947C132.375 26.1951 133.173 26.1803 133.97 26.1989C134.939 26.2218 135.684 26.665 136.196 27.4833C136.432 27.8605 136.549 28.2813 136.559 28.73C136.566 29.0826 136.561 29.4332 136.444 29.7714C136.096 30.7701 135.398 31.3733 134.365 31.585C134.204 31.618 134.034 31.6188 133.869 31.6197C133.051 31.6231 132.235 31.6214 131.418 31.6214Z" fill="white"/>
<path d="M118.457 22.9407V30.62C118.484 30.6251 118.508 30.6318 118.534 30.6335C118.567 30.6361 118.601 30.6344 118.636 30.6344H124.932C124.996 30.6344 125.061 30.634 125.125 30.6412C125.323 30.6619 125.47 30.7957 125.502 30.9921C125.515 31.0763 125.516 31.1657 125.505 31.2503C125.479 31.459 125.329 31.5966 125.119 31.6169C125.07 31.6212 125.021 31.6208 124.972 31.6208C122.65 31.6212 120.328 31.6212 118.006 31.6203C117.931 31.6203 117.853 31.6182 117.78 31.6013C117.579 31.5539 117.453 31.4121 117.425 31.208C117.416 31.1445 117.413 31.0802 117.413 31.0162C117.412 28.2049 117.412 25.3931 117.413 22.5817C117.413 22.5102 117.416 22.4382 117.427 22.3675C117.461 22.1376 117.63 21.9797 117.861 21.9582C117.91 21.9535 117.96 21.9539 118.009 21.9539C120.304 21.9539 122.6 21.9535 124.895 21.9548C124.978 21.9548 125.063 21.9603 125.142 21.9802C125.285 22.0166 125.377 22.1135 125.418 22.2545C125.455 22.3806 125.455 22.5085 125.417 22.6342C125.362 22.812 125.238 22.9098 125.056 22.9335C124.989 22.942 124.92 22.9407 124.852 22.9407C122.772 22.9407 120.692 22.9407 118.612 22.9407H118.457Z" fill="white"/>
<path d="M86.9513 30.6345H87.1134H93.046C93.1104 30.6345 93.1751 30.6333 93.239 30.6409C93.4253 30.6629 93.5527 30.7628 93.6082 30.9448C93.6442 31.0634 93.645 31.184 93.6141 31.303C93.5684 31.4812 93.4274 31.5976 93.2395 31.6162C93.187 31.6217 93.1336 31.6209 93.0807 31.6209C90.8917 31.6213 88.7026 31.6213 86.5131 31.6209C86.4454 31.6209 86.376 31.6217 86.3095 31.6103C86.0767 31.5688 85.9353 31.4029 85.9124 31.1518C85.9086 31.1108 85.9094 31.0684 85.9094 31.0274C85.9094 28.1597 85.9094 25.2921 85.9103 22.4244C85.9103 22.3567 85.9145 22.2881 85.9272 22.222C85.9628 22.0362 86.0771 21.9143 86.2617 21.8812C86.3709 21.8618 86.4894 21.8605 86.5982 21.8808C86.8078 21.9193 86.9309 22.0768 86.9483 22.2982C86.9534 22.3583 86.9513 22.4189 86.9513 22.4794V30.4703V30.6345Z" fill="white"/>
<path d="M110.463 21.9539C111.782 21.9539 113.102 21.9539 114.422 21.9539C114.482 21.9539 114.543 21.9531 114.603 21.9582C114.801 21.9759 114.949 22.0953 114.985 22.2884C115.003 22.3862 115.003 22.4933 114.984 22.5906C114.947 22.7761 114.821 22.8832 114.634 22.9128C114.578 22.9217 114.521 22.9246 114.464 22.9246C111.791 22.9255 109.118 22.9251 106.445 22.9251C106.407 22.9251 106.369 22.9242 106.331 22.9204C106.075 22.8933 105.935 22.757 105.912 22.4988C105.905 22.4213 105.913 22.3392 105.932 22.2638C105.975 22.0903 106.116 21.9776 106.3 21.959C106.36 21.9531 106.421 21.9539 106.481 21.9539C107.809 21.9539 109.136 21.9539 110.463 21.9539Z" fill="white"/>
<path d="M121.975 27.1478C121.359 27.1478 120.743 27.1482 120.128 27.1478C119.789 27.1474 119.617 26.9751 119.62 26.6385C119.621 26.3257 119.79 26.1563 120.105 26.1559C120.993 26.1551 121.881 26.1555 122.769 26.1555C123.128 26.1555 123.486 26.1538 123.845 26.1572C123.92 26.158 123.998 26.1669 124.067 26.1919C124.265 26.2626 124.333 26.4268 124.343 26.6195C124.352 26.8189 124.307 27.0022 124.108 27.0949C124.03 27.1313 123.933 27.1452 123.845 27.1457C123.221 27.1499 122.598 27.1478 121.975 27.1478Z" fill="white"/>
<path d="M7.44696 24.5662C7.44696 24.2377 7.5075 23.927 7.62942 23.6349C7.75091 23.3424 7.91855 23.0808 8.13149 22.8496C8.34443 22.6185 8.59716 22.4356 8.88968 22.3014C9.18178 22.1676 9.49251 22.1008 9.82102 22.1008H14.697C14.9167 22.1008 15.0259 22.2167 15.0259 22.4479C15.0259 22.6667 14.9167 22.7764 14.697 22.7764H9.93066C9.407 22.7764 8.98366 22.9529 8.66151 23.306C8.3385 23.6595 8.17763 24.0794 8.17763 24.5662C8.17763 24.7974 8.21658 25.0226 8.29617 25.2419C8.37491 25.4612 8.48794 25.6529 8.63399 25.8172C8.78004 25.9815 8.9625 26.1157 9.18178 26.2189C9.40107 26.3227 9.65041 26.3743 9.93066 26.3743H13.2543C13.6073 26.3743 13.9362 26.4412 14.2406 26.5754C14.545 26.7092 14.8125 26.8887 15.0441 27.1139C15.2753 27.3395 15.4552 27.61 15.583 27.9267C15.7109 28.2433 15.7748 28.5841 15.7748 28.9495C15.7748 29.3144 15.7109 29.6526 15.583 29.9629C15.4552 30.2732 15.2753 30.5446 15.0441 30.7753C14.8125 31.0069 14.545 31.1897 14.2406 31.3235C13.9362 31.4577 13.6073 31.5242 13.2543 31.5242H8.03116C7.8123 31.5242 7.70265 31.4145 7.70265 31.1957V31.1775C7.70265 30.9582 7.8123 30.8485 8.03116 30.8485H13.1632C13.7474 30.8485 14.2072 30.6695 14.542 30.31C14.8765 29.9511 15.0441 29.4972 15.0441 28.9495C15.0441 28.4381 14.8799 27.9936 14.5509 27.6164C14.2224 27.2388 13.7593 27.05 13.1632 27.05H9.82102C9.49251 27.05 9.18178 26.9831 8.88968 26.8493C8.59716 26.7155 8.34443 26.5356 8.13149 26.3104C7.91855 26.0852 7.75091 25.8236 7.62942 25.5251C7.5075 25.2271 7.44696 24.9075 7.44696 24.5662Z" fill="white"/>
<path d="M21.509 31.2687V24.4018C21.509 24.1707 21.6246 24.0547 21.8557 24.0547H21.8925C22.1237 24.0547 22.2397 24.1707 22.2397 24.4018V31.2687C22.2397 31.5003 22.1118 31.6154 21.8557 31.6154C21.6246 31.6154 21.509 31.5003 21.509 31.2687ZM17.4365 22.4295C17.4365 22.2102 17.5462 22.101 17.765 22.101H25.9832C26.2025 22.101 26.3121 22.2102 26.3121 22.4295C26.3121 22.6488 26.2025 22.758 25.9832 22.758H17.765C17.5462 22.758 17.4365 22.6488 17.4365 22.4295Z" fill="white"/>
<path d="M27.4259 31.141L31.5534 22.5211C31.7118 22.2044 31.9734 22.0461 32.3387 22.0461C32.6918 22.0461 32.9471 22.2044 33.1058 22.5211L37.2333 31.141C37.3912 31.4576 37.2938 31.6155 36.9408 31.6155H36.9226C36.7643 31.6155 36.6487 31.5427 36.5754 31.3967L35.4617 29.1318H31.0603C30.7436 29.1318 30.6526 28.9921 30.7864 28.7119C30.8596 28.5658 30.9752 28.493 31.1335 28.493H35.1696L32.3205 22.5393L28.0834 31.3967C28.0106 31.5427 27.8886 31.6155 27.7185 31.6155C27.365 31.6155 27.2676 31.4576 27.4259 31.141Z" fill="white"/>
<path d="M40.5567 22.4843C40.5567 22.2286 40.6845 22.1008 40.9402 22.1008H46.2548C48.0324 22.1008 48.9214 23.0021 48.9214 24.8038C48.9214 25.5709 48.7203 26.1949 48.3185 26.6754C47.9168 27.1567 47.2835 27.4822 46.4195 27.6524L48.976 31.1411C49.2194 31.4578 49.1402 31.6157 48.7385 31.6157C48.5437 31.6157 48.3795 31.5306 48.2453 31.36L45.5423 27.6524H43.1318C42.9126 27.6524 42.8033 27.5432 42.8033 27.3239C42.8033 27.105 42.9126 26.9954 43.1318 26.9954H46.0173C46.6747 26.9954 47.2014 26.8066 47.5972 26.429C47.9926 26.0518 48.1907 25.4917 48.1907 24.7488C48.1907 24.0795 48.0383 23.5799 47.7343 23.2514C47.4295 22.9225 46.8572 22.7582 46.0173 22.7582H41.2874V31.2685C41.2874 31.5001 41.1595 31.6157 40.9038 31.6157C40.6723 31.6157 40.5567 31.5001 40.5567 31.2685V22.4843Z" fill="white"/>
<path d="M54.9476 31.2687V24.4018C54.9476 24.1707 55.0632 24.0547 55.2947 24.0547H55.3311C55.5623 24.0547 55.6783 24.1707 55.6783 24.4018V31.2687C55.6783 31.5003 55.5504 31.6154 55.2947 31.6154C55.0632 31.6154 54.9476 31.5003 54.9476 31.2687ZM50.8751 22.4295C50.8751 22.2102 50.9848 22.101 51.2041 22.101H59.4222C59.6411 22.101 59.7507 22.2102 59.7507 22.4295C59.7507 22.6488 59.6411 22.758 59.4222 22.758H51.2041C50.9848 22.758 50.8751 22.6488 50.8751 22.4295Z" fill="white"/>
<path d="M29.4045 39.2335L30.0806 37.0296C30.0992 36.9555 30.1513 36.9183 30.2381 36.9183C30.3922 36.9183 30.4447 36.9924 30.3951 37.141L29.5988 39.678C29.5925 39.7153 29.5802 39.7339 29.5616 39.7339C29.5493 39.7339 29.5341 39.7153 29.5154 39.678L29.4227 39.4558C29.4104 39.4185 29.4011 39.3817 29.3952 39.3448C29.3889 39.3076 29.3918 39.2708 29.4045 39.2335ZM25.4595 36.9183C25.5458 36.9183 25.5979 36.9555 25.6165 37.0296L26.6355 40.5581L27.6075 38.289C27.6633 38.1591 27.7649 38.0947 27.9135 38.0947C28.0613 38.0947 28.1633 38.1591 28.2192 38.289L29.2284 40.6043C29.2961 40.7461 29.25 40.8172 29.0891 40.8172C29.0028 40.8172 28.9473 40.7829 28.9228 40.7152L27.9042 38.4097L26.978 40.5856C26.9162 40.7402 26.7959 40.8172 26.6169 40.8172C26.4441 40.8172 26.3328 40.7338 26.2833 40.567L25.2927 37.141C25.2495 36.9924 25.305 36.9183 25.4595 36.9183Z" fill="white"/>
<path d="M35.998 39.2335L36.6741 37.0296C36.6927 36.9555 36.7448 36.9183 36.8316 36.9183C36.9857 36.9183 37.0382 36.9924 36.9886 37.141L36.1923 39.678C36.186 39.7153 36.1741 39.7339 36.1555 39.7339C36.1428 39.7339 36.1276 39.7153 36.1089 39.678L36.0162 39.4558C36.004 39.4185 35.9946 39.3817 35.9887 39.3448C35.9824 39.3076 35.9857 39.2708 35.998 39.2335ZM32.053 36.9183C32.1393 36.9183 32.1918 36.9555 32.2105 37.0296L33.229 40.5581L34.2014 38.289C34.2569 38.1591 34.3589 38.0947 34.507 38.0947C34.6552 38.0947 34.7572 38.1591 34.8127 38.289L35.8219 40.6043C35.8901 40.7461 35.8435 40.8172 35.6831 40.8172C35.5963 40.8172 35.5408 40.7829 35.5163 40.7152L34.4977 38.4097L33.5719 40.5856C33.5097 40.7402 33.3894 40.8172 33.2104 40.8172C33.0377 40.8172 32.9263 40.7338 32.8772 40.567L31.8862 37.141C31.843 36.9924 31.8985 36.9183 32.053 36.9183Z" fill="white"/>
<path d="M42.5913 39.2335L43.2674 37.0296C43.286 36.9555 43.3381 36.9183 43.4249 36.9183C43.579 36.9183 43.6315 36.9924 43.5824 37.141L42.7856 39.678C42.7793 39.7153 42.7674 39.7339 42.7488 39.7339C42.7361 39.7339 42.7209 39.7153 42.7022 39.678L42.6095 39.4558C42.5973 39.4185 42.5879 39.3817 42.582 39.3448C42.5757 39.3076 42.5791 39.2708 42.5913 39.2335ZM38.6463 36.9183C38.7326 36.9183 38.7851 36.9555 38.8038 37.0296L39.8223 40.5581L40.7947 38.289C40.8506 38.1591 40.9522 38.0947 41.1003 38.0947C41.2485 38.0947 41.3505 38.1591 41.406 38.289L42.4152 40.6043C42.4834 40.7461 42.4368 40.8172 42.2764 40.8172C42.19 40.8172 42.1341 40.7829 42.1096 40.7152L41.091 38.4097L40.1652 40.5856C40.1034 40.7402 39.9827 40.8172 39.8041 40.8172C39.631 40.8172 39.52 40.7338 39.4705 40.567L38.4799 37.141C38.4363 36.9924 38.4918 36.9183 38.6463 36.9183Z" fill="white"/>
<path d="M45.0455 40.5949V40.3354C45.0455 40.2122 45.1073 40.1504 45.2305 40.1504H45.49C45.6132 40.1504 45.675 40.2122 45.675 40.3354V40.5949C45.675 40.7185 45.6132 40.7799 45.49 40.7799H45.2305C45.1073 40.7799 45.0455 40.7185 45.0455 40.5949Z" fill="white"/>
<path d="M48.3144 37.9834C48.3144 37.6502 48.4012 37.397 48.5739 37.2239C48.7466 37.0512 48.9998 36.9648 49.3329 36.9648H51.4352C51.5338 36.9648 51.5834 37.0143 51.5834 37.113C51.5834 37.2116 51.5338 37.2612 51.4352 37.2612H49.3981C49.1386 37.2612 48.9502 37.3136 48.833 37.4182C48.7157 37.5236 48.6573 37.7057 48.6573 37.9647C48.6573 38.2238 48.714 38.4046 48.8283 38.5062C48.9426 38.6086 49.1323 38.6594 49.3981 38.6594H50.8705C51.2223 38.6594 51.4894 38.7492 51.6714 38.9278C51.8535 39.1069 51.9445 39.3694 51.9445 39.7152C51.9445 40.067 51.8535 40.3324 51.6714 40.5115C51.4894 40.691 51.2223 40.7799 50.8705 40.7799H48.6014C48.5028 40.7799 48.4532 40.7308 48.4532 40.6322C48.4532 40.5331 48.5028 40.4836 48.6014 40.4836H50.8239C51.1143 40.4836 51.3163 40.4222 51.4306 40.2986C51.5449 40.1754 51.602 39.9807 51.602 39.7152C51.602 39.4375 51.5402 39.2415 51.417 39.1268C51.2934 39.0129 51.0957 38.9558 50.8239 38.9558H49.3329C48.9998 38.9558 48.7466 38.8753 48.5739 38.7153C48.4012 38.5544 48.3144 38.3106 48.3144 37.9834Z" fill="white"/>
<path d="M53.5746 37.1131C53.5746 37.0145 53.6242 36.9645 53.7228 36.9645H54.3155V36.1217C54.3155 36.0107 54.3739 35.9553 54.4916 35.9553C54.6025 35.9553 54.658 36.0107 54.658 36.1217V36.9645H55.9267C56.0257 36.9645 56.0749 37.0145 56.0749 37.1131C56.0749 37.2113 56.0257 37.2613 55.9267 37.2613H54.658V40.6598C54.658 40.7711 54.5991 40.8262 54.4823 40.8262C54.3709 40.8262 54.3155 40.7711 54.3155 40.6598V37.2613H53.7228C53.6242 37.2613 53.5746 37.2113 53.5746 37.1131Z" fill="white"/>
<path d="M58.0381 38.3629H59.9735C60.0722 38.3629 60.1217 38.4124 60.1217 38.5114C60.1217 38.6101 60.0722 38.6592 59.9735 38.6592H57.9551V40.4838H60.8532V37.2609H58.1955C58.0969 37.2609 58.0474 37.2114 58.0474 37.1132C58.0474 37.0141 58.0969 36.9646 58.1955 36.9646H60.7703C61.0539 36.9646 61.1957 37.1034 61.1957 37.3816V40.3538C61.1957 40.6379 61.0539 40.7801 60.7703 40.7801H58.0381C57.754 40.7801 57.6122 40.6379 57.6122 40.3538V38.798C57.6122 38.5081 57.754 38.3629 58.0381 38.3629Z" fill="white"/>
<path d="M63.7239 37.159C63.7239 37.0295 63.7887 36.9647 63.9187 36.9647H66.882C67.1656 36.9647 67.3079 37.1002 67.3079 37.3719V38.752C67.3079 38.8629 67.2495 38.9184 67.1318 38.9184C67.0209 38.9184 66.9654 38.8629 66.9654 38.752V37.261H64.0668V40.66C64.0668 40.7709 64.008 40.8264 63.8907 40.8264C63.7798 40.8264 63.7239 40.7709 63.7239 40.66V37.159Z" fill="white"/>
<path d="M68.8083 37.1131C68.8083 37.0145 68.8578 36.9645 68.9565 36.9645H69.5491V36.1217C69.5491 36.0107 69.6071 35.9553 69.7248 35.9553C69.8357 35.9553 69.8924 36.0107 69.8924 36.1217V36.9645H71.1612C71.259 36.9645 71.3085 37.0145 71.3085 37.1131C71.3085 37.2113 71.259 37.2613 71.1612 37.2613H69.8924V40.6598C69.8924 40.7711 69.8328 40.8262 69.7155 40.8262C69.6046 40.8262 69.5491 40.7711 69.5491 40.6598V37.2613H68.9565C68.8578 37.2613 68.8083 37.2113 68.8083 37.1131Z" fill="white"/>
<path d="M73.0676 37.1591C73.0676 37.0295 73.1324 36.9648 73.2624 36.9648H76.2257C76.5098 36.9648 76.652 37.1036 76.652 37.3813V40.354C76.652 40.638 76.5098 40.7803 76.2257 40.7803H74.2623C74.1641 40.7803 74.1145 40.7312 74.1145 40.6321C74.1145 40.5335 74.1641 40.4839 74.2623 40.4839H76.3091V37.2611H73.4105V41.9749C73.4105 42.0863 73.3517 42.1417 73.2348 42.1417C73.1239 42.1417 73.0676 42.0863 73.0676 41.9749V37.1591Z" fill="white"/>
<path d="M79.2353 37.085C79.2353 36.9737 79.2912 36.9183 79.4025 36.9183H79.4114C79.5228 36.9183 79.5782 36.9737 79.5782 37.085V40.6597C79.5782 40.771 79.5194 40.8265 79.4025 40.8265C79.2912 40.8265 79.2353 40.771 79.2353 40.6597V37.085ZM79.3187 35.6406H79.4855C79.5659 35.6406 79.6057 35.6808 79.6057 35.7609V35.9827C79.6057 36.0635 79.5659 36.1033 79.4855 36.1033H79.3187C79.2387 36.1033 79.1985 36.0635 79.1985 35.9827V35.7609C79.1985 35.6808 79.2387 35.6406 79.3187 35.6406Z" fill="white"/>
<path d="M82.2541 40.6135V35.7608C82.2541 35.6495 82.3129 35.5944 82.4306 35.5944C82.5415 35.5944 82.597 35.6495 82.597 35.7608V40.4835H82.9953C83.094 40.4835 83.1435 40.5335 83.1435 40.6321C83.1435 40.7307 83.094 40.7803 82.9953 40.7803H82.4213C82.3104 40.7803 82.2541 40.7248 82.2541 40.6135Z" fill="white"/>
<path d="M85.7271 38.3629H87.6626C87.7617 38.3629 87.8108 38.4124 87.8108 38.5114C87.8108 38.6101 87.7617 38.6592 87.6626 38.6592H85.6437V40.4838H88.5423V37.2609H85.8842C85.7856 37.2609 85.736 37.2114 85.736 37.1132C85.736 37.0141 85.7856 36.9646 85.8842 36.9646H88.4589C88.743 36.9646 88.8848 37.1034 88.8848 37.3816V40.3538C88.8848 40.6379 88.743 40.7801 88.4589 40.7801H85.7271C85.4431 40.7801 85.3013 40.6379 85.3013 40.3538V38.798C85.3013 38.5081 85.4431 38.3629 85.7271 38.3629Z" fill="white"/>
<path d="M90.9593 37.1131C90.9593 37.0145 91.0084 36.9645 91.1075 36.9645H91.7001V36.1217C91.7001 36.0107 91.7585 35.9553 91.8762 35.9553C91.9871 35.9553 92.043 36.0107 92.043 36.1217V36.9645H93.3118C93.41 36.9645 93.4599 37.0145 93.4599 37.1131C93.4599 37.2113 93.41 37.2613 93.3118 37.2613H92.043V40.6598C92.043 40.7711 91.9842 40.8262 91.8669 40.8262C91.7556 40.8262 91.7001 40.7711 91.7001 40.6598V37.2613H91.1075C91.0084 37.2613 90.9593 37.2113 90.9593 37.1131Z" fill="white"/>
<path d="M95.5341 36.9647H98.2845C98.5622 36.9647 98.7011 37.1036 98.7011 37.3813V38.8257C98.7011 39.1097 98.5622 39.252 98.2845 39.252H96.3308C96.2313 39.252 96.1822 39.2024 96.1822 39.1042C96.1822 39.0052 96.2313 38.9556 96.3308 38.9556H98.3586V37.261H95.4596V40.4839H98.21C98.3091 40.4839 98.3586 40.5334 98.3586 40.632C98.3586 40.7307 98.3091 40.7802 98.21 40.7802H95.5341C95.2564 40.7802 95.1176 40.638 95.1176 40.3539V37.3813C95.1176 37.1036 95.2564 36.9647 95.5341 36.9647Z" fill="white"/>
<path d="M100.701 37.9834C100.701 37.6502 100.787 37.397 100.96 37.2239C101.134 37.0512 101.387 36.9648 101.72 36.9648H103.822C103.92 36.9648 103.971 37.0143 103.971 37.113C103.971 37.2116 103.92 37.2612 103.822 37.2612H101.785C101.525 37.2612 101.337 37.3136 101.22 37.4182C101.102 37.5236 101.044 37.7057 101.044 37.9647C101.044 38.2238 101.101 38.4046 101.215 38.5062C101.329 38.6086 101.519 38.6594 101.785 38.6594H103.257C103.609 38.6594 103.876 38.7492 104.058 38.9278C104.24 39.1069 104.331 39.3694 104.331 39.7152C104.331 40.067 104.24 40.3324 104.058 40.5115C103.876 40.691 103.609 40.7799 103.257 40.7799H100.988C100.889 40.7799 100.84 40.7308 100.84 40.6322C100.84 40.5331 100.889 40.4836 100.988 40.4836H103.211C103.501 40.4836 103.704 40.4222 103.818 40.2986C103.931 40.1754 103.989 39.9807 103.989 39.7152C103.989 39.4375 103.927 39.2415 103.804 39.1268C103.68 39.0129 103.482 38.9558 103.211 38.9558H101.72C101.387 38.9558 101.134 38.8753 100.96 38.7153C100.787 38.5544 100.701 38.3106 100.701 37.9834Z" fill="white"/>
<path d="M106.36 40.5949V40.3354C106.36 40.2122 106.422 40.1504 106.545 40.1504H106.804C106.928 40.1504 106.989 40.2122 106.989 40.3354V40.5949C106.989 40.7185 106.928 40.7799 106.804 40.7799H106.545C106.422 40.7799 106.36 40.7185 106.36 40.5949Z" fill="white"/>
<path d="M110.407 36.9647H112.351C112.45 36.9647 112.5 37.0142 112.5 37.1133C112.5 37.2115 112.45 37.261 112.351 37.261H110.332V40.4839H113.222V37.0849C113.222 36.9736 113.28 36.9186 113.397 36.9186C113.509 36.9186 113.565 36.9736 113.565 37.0849V41.6785C113.565 41.9562 113.422 42.0951 113.139 42.0951H112.296C112.197 42.0951 112.147 42.0456 112.147 41.9473C112.147 41.8479 112.197 41.7988 112.296 41.7988H113.222V40.7802H110.407C110.129 40.7802 109.99 40.638 109.99 40.3539V37.3813C109.99 37.1036 110.129 36.9647 110.407 36.9647Z" fill="white"/>
<path d="M116.102 37.159C116.102 37.0295 116.167 36.9647 116.296 36.9647H119.26C119.544 36.9647 119.686 37.1002 119.686 37.3719V38.752C119.686 38.8629 119.627 38.9184 119.51 38.9184C119.398 38.9184 119.343 38.8629 119.343 38.752V37.261H116.445V40.66C116.445 40.7709 116.386 40.8264 116.269 40.8264C116.157 40.8264 116.102 40.7709 116.102 40.66V37.159Z" fill="white"/>
<path d="M7.44684 39.2016H18.6279V38.7431H7.44684V39.2016Z" fill="#FF0000"/>
<path d="M125.38 39.2016H136.561V38.7431H125.38V39.2016Z" fill="#FF0000"/>
</g>
</g>
<defs>
<clipPath id="clip0_2184_36">
<rect width="144" height="60" fill="white"/>
</clipPath>
</defs>
</svg>
